<mxfile host="app.diagrams.net" modified="2021-01-06T09:16:36.028Z" agent="5.0 (X11; Linux x86_64) AppleWebKit/537.36 (KHTML, like Gecko) Chrome/77.0.3865.90 Safari/537.36" etag="xk-cB3jrs0Lano7uNogm" version="14.0.5" type="github">
  <diagram id="9qnXZblYsc0HYve3MmXv" name="Page-1">
    <mxGraphModel dx="1355" dy="774" grid="1" gridSize="10" guides="1" tooltips="1" connect="1" arrows="1" fold="1" page="1" pageScale="1" pageWidth="1169" pageHeight="1654" math="0" shadow="0">
      <root>
        <mxCell id="0" />
        <mxCell id="1" parent="0" />
        <mxCell id="6OHAQtPoVVCd34PhQwKB-3" value="" style="edgeStyle=orthogonalEdgeStyle;rounded=0;orthogonalLoop=1;jettySize=auto;html=1;" edge="1" parent="1" source="6OHAQtPoVVCd34PhQwKB-1" target="6OHAQtPoVVCd34PhQwKB-2">
          <mxGeometry relative="1" as="geometry" />
        </mxCell>
        <mxCell id="6OHAQtPoVVCd34PhQwKB-1" value="" style="ellipse;whiteSpace=wrap;html=1;" vertex="1" parent="1">
          <mxGeometry x="170" y="280" width="120" height="80" as="geometry" />
        </mxCell>
        <mxCell id="6OHAQtPoVVCd34PhQwKB-2" value="" style="ellipse;whiteSpace=wrap;html=1;" vertex="1" parent="1">
          <mxGeometry x="370" y="280" width="120" height="80" as="geometry" />
        </mxCell>
      </root>
    </mxGraphModel>
  </diagram>
</mxfile>
